<svg version="1.2" xmlns="http://www.w3.org/2000/svg" viewBox="0 0 700 500" width="700" height="500">
	<title>12983800_5124107-svg</title>
	<style>
		.s0 { fill: #dcedfd } 
		.s1 { fill: #f0f3fa } 
		.s2 { fill: #c7e1f8 } 
		.s3 { fill: #385aa3 } 
		.s4 { fill: #304f91 } 
		.s5 { fill: #ffffff } 
		.s6 { fill: #4972c7 } 
		.s7 { fill: #547cd1 } 
		.s8 { fill: #fec164 } 
		.s9 { fill: #f3aa81 } 
		.s10 { fill: #226b9e } 
		.s11 { fill: #1a5680 } 
		.s12 { fill: #214a6a } 
		.s13 { fill: #dde1eb } 
		.s14 { fill: #e6996f } 
		.s15 { fill: #cc835b } 
		.s16 { fill: #464559 } 
		.s17 { fill: #3c3b4d } 
		.s18 { fill: #313042 } 
		.s19 { fill: #e6f5ff } 
	</style>
	<g id="OBJECTS">
		<g id="Layer">
			<g id="Layer">
				<path id="Layer" class="s0" d="m178.5 275.7q0 0 0-0.1 0 0 0 0c0.2-0.4 15.4-39.6-0.6-82.5 0-0.3-0.2-0.4-0.5-0.4-0.2 0-0.4 0.2-0.4 0.4-0.1 0.4-9.1 42 0.1 80.4-2.1-3-4.6-5.9-7.1-8.7q-2.7-2.8-5.4-5.7 0 0 0-0.1c-2.1-9.6 0.8-31.1 2.8-46.7 0.5-3.9 1-7.5 1.4-10.5 1.8-15.5-2-24.7-2.1-25-0.1-0.2-0.3-0.3-0.4-0.3-0.2-0.1-0.4 0-0.5 0.1-0.3 0.4-7.7 9.8-9.8 33.3-1.7 19.7 4.8 41 6.9 47.5-6.9-7.3-14.1-14.3-21.4-21.1q0 0 0-0.1c0.2-0.3 15.4-39.5-0.5-82.5-0.1-0.2-0.3-0.3-0.6-0.3-0.2 0-0.4 0.2-0.4 0.4-0.1 0.4-9.3 42.6 0.3 81.3q-6.5-6-13.2-11.8-1.5-1.3-2.9-2.5c-1.6-9.9 2-31 4.7-46.4 0.6-3.8 1.3-7.4 1.7-10.4 2.5-15.5-0.9-24.7-1.1-25.1-0.1-0.2-0.2-0.3-0.4-0.3-0.2-0.1-0.3 0-0.5 0.1-0.3 0.4-8 9.5-11 32.9-2.6 19.8 3.2 41.6 5.1 47.9q-1.2-1-2.3-2c-4.4-3.7-8.7-7.5-13-11.3 0.4-3.7 4.4-43.6-18.9-80.2-0.2-0.2-0.4-0.3-0.6-0.2-0.2 0-0.4 0.2-0.4 0.5 0 0.4 0.9 42.6 17.7 77.9-6.4-5.9-12.4-12.1-17.7-18.9-1.1-2.7-17.8-43.2-42.1-58.8-0.2-0.1-0.4-0.1-0.6 0-0.2 0.2-0.2 0.4-0.1 0.7 0.9 1.9 23.8 48.2 42.1 58.9 4.9 6.3 10.5 12.1 16.4 17.6-5.8-3.1-17-8.5-29.2-10.8-17.4-3.3-28.6-6.4-28.7-6.5-0.2 0-0.4 0-0.6 0.2-0.1 0.2-0.1 0.4 0 0.6 0.1 0.1 7.2 12.7 21.3 16.5 10.5 2.9 28.2 3.2 36.4 3.2 2.2 0 3.7 0 4.2 0 4.3 3.9 8.7 7.7 13.1 11.4q1.5 1.3 2.9 2.5c-3 0.6-13.1 2.1-27.3-2.9-17.3-6-39.5 0.7-39.8 0.7-0.2 0.1-0.4 0.3-0.3 0.6 0 0.2 0.2 0.4 0.4 0.5 7.1 0.5 14 3 20.7 5.6 7.4 2.7 15 5.6 22.9 5.6q0.8 0 1.5 0c13.9-0.7 21.5-7.5 23.1-9.1q1.3 1.1 2.6 2.2 6.5 5.7 12.9 11.6c-4.9-0.7-19.5-2.4-33.8 0.4-17.4 3.4-28.9 4.6-29.1 4.6-0.2 0-0.3 0.1-0.4 0.3-0.1 0.2 0 0.4 0.2 0.6 0.1 0.1 9.5 7.7 22.3 7.7q1.7 0 3.6-0.2c13.4-1.5 35.7-10.7 38.7-11.9 7.6 7 15 14.3 22.2 21.8-3 0.7-13.1 2.6-27.4-1.8-17.6-5.3-39.5 2.2-39.7 2.3-0.3 0-0.4 0.3-0.4 0.5 0.1 0.3 0.3 0.5 0.5 0.5 7.1 0.2 14.1 2.5 20.8 4.8 7.1 2.3 14.5 4.7 21.9 4.7q1.4 0 2.8-0.1c13.4-1.1 20.7-7.9 22.5-9.8q2.6 2.7 5.2 5.5c2.8 3 5.5 6.1 7.6 9.5-4.5-0.7-19.5-2.5-34.3 0.3-17.4 3.4-29 4.6-29.1 4.6-0.2 0-0.4 0.1-0.4 0.3-0.1 0.2 0 0.5 0.1 0.6 0.2 0.1 9.6 7.7 22.4 7.7q1.7 0 3.5-0.2c13.2-1.5 34.9-10.3 38.6-11.9 1.4 2.5 2.3 5.1 2.6 7.9 0.1 0.3 0.3 0.5 0.5 0.5q0.1 0 0.1 0c0.3-0.1 0.5-0.3 0.5-0.6-0.4-3-1.4-5.7-2.8-8.3q0-0.1 0-0.2z"/>
				<path id="Layer" class="s1" d="m432.7 108.1c3.7-0.3 43.5-4.6 74.5-35.1 0.2-0.2 0.2-0.4 0.1-0.6-0.1-0.2-0.4-0.3-0.6-0.3-0.4 0.1-41.5 9.7-72.5 33.5 4.4-7.5 9.2-14.7 14.7-21.2 2.4-1.6 38.7-26.4 48.9-53.4 0-0.2 0-0.5-0.2-0.6-0.2-0.1-0.5-0.1-0.6 0-1.8 1.4-42.2 33.3-48.9 53.5-5.2 6-9.7 12.7-13.9 19.6 1.9-6.2 4.8-18.3 4.5-30.8-0.4-17.7 0.4-29.3 0.4-29.4 0-0.2-0.1-0.4-0.3-0.5-0.2-0.1-0.4 0-0.6 0.1-0.1 0.1-10.9 9.6-11.7 24.3-0.6 10.9 2.7 28.2 4.4 36.2 0.5 2.2 0.8 3.7 0.9 4.2-2.9 5-5.7 10.1-8.4 15.1q-0.9 1.7-1.9 3.4c-1.2-2.8-4.7-12.4-2.8-27.3 2.2-18.2-8.9-38.6-9-38.8-0.1-0.2-0.4-0.3-0.6-0.2-0.2 0.1-0.4 0.3-0.3 0.5 0.9 7-0.2 14.3-1.2 21.4-1.2 7.8-2.4 15.9-0.8 23.6q0.1 0.7 0.3 1.5c3.6 13.4 11.8 19.4 13.7 20.6q-0.8 1.6-1.6 3.1-4.2 7.6-8.7 15c-0.3-5-1.7-19.6-7.4-33-6.9-16.3-10.4-27.4-10.5-27.5 0-0.2-0.2-0.3-0.4-0.3-0.2 0-0.4 0.1-0.5 0.3-0.1 0.1-5.6 10.9-2.9 23.4q0.3 1.7 0.9 3.4c4.3 12.9 17.8 32.8 19.7 35.5-5.3 8.9-10.9 17.6-16.7 26.2-1.4-2.8-5.3-12.2-4-27.2 1.6-18.2-10.3-38.2-10.4-38.4-0.2-0.2-0.4-0.3-0.7-0.2-0.2 0.1-0.3 0.3-0.3 0.6 1.3 6.9 0.4 14.3-0.3 21.3-0.9 7.5-1.7 15.2-0.2 22.4q0.3 1.4 0.7 2.7c3.9 12.9 12 18.6 14.3 20q-2.1 3.2-4.3 6.3c-2.4 3.3-4.9 6.6-7.7 9.3-0.3-4.4-1.6-19.6-7.4-33.4-6.9-16.3-10.5-27.4-10.6-27.5 0-0.2-0.2-0.4-0.4-0.4-0.2 0-0.4 0.1-0.5 0.3-0.1 0.1-5.6 10.9-2.9 23.5q0.3 1.7 0.9 3.4c4.2 12.6 17.3 31.9 19.6 35.3-2.1 1.8-4.5 3.2-7.1 4.1-0.3 0.1-0.4 0.4-0.4 0.6q0.1 0.1 0.1 0.1c0.1 0.3 0.3 0.4 0.6 0.3 2.9-0.9 5.3-2.5 7.6-4.4q0.1 0 0.2 0 0-0.1 0-0.1 0.1 0 0.1 0.1c0.4 0 41.8 6.8 80.6-17.7 0.2-0.2 0.3-0.4 0.2-0.6-0.1-0.2-0.3-0.4-0.5-0.4-0.4 0-42.9-0.2-78.6 16.8 2.6-2.6 4.8-5.7 7-8.7q2.3-3.2 4.5-6.5 0 0 0.1 0c9-4.1 30.6-5.7 46.3-6.9 3.8-0.3 7.5-0.6 10.5-0.9 15.6-1.5 23.7-7 24.1-7.3 0.1-0.1 0.2-0.2 0.2-0.4 0-0.2-0.1-0.4-0.3-0.5-0.4-0.2-11.2-5.5-34.6-2.6-19.6 2.4-39.1 13.2-45 16.6 5.7-8.3 11.1-16.7 16.2-25.3q0 0 0.1 0c0.4 0.1 41.8 6.9 80.5-17.7 0.2-0.1 0.3-0.3 0.3-0.6-0.1-0.2-0.3-0.3-0.5-0.3-0.5 0-43.6-0.2-79.5 17.2q4.6-7.7 8.9-15.4 0.9-1.7 1.8-3.4c9.3-3.6 30.7-4.4 46.4-5 3.8-0.2 7.4-0.3 10.5-0.5 15.6-0.8 24-6 24.3-6.3 0.2-0.1 0.2-0.2 0.2-0.4 0-0.2-0.1-0.4-0.2-0.5-0.5-0.2-11-5.9-34.5-4-19.9 1.7-40 11.9-45.8 15q0.8-1.3 1.5-2.7c2.7-5 5.5-10.1 8.4-15.1z"/>
				<path id="Layer" class="s0" d="m658.7 304.7c-0.1-0.2-0.3-0.2-0.5-0.2-0.1 0-11.3 3.2-28.7 6.5-12.3 2.3-23.5 7.7-29.2 10.8 5.9-5.5 11.5-11.3 16.4-17.6 18.3-10.8 41.1-57 42.1-59 0.1-0.2 0.1-0.4-0.1-0.6-0.2-0.1-0.4-0.2-0.6 0-24.3 15.5-41.1 56.1-42.2 58.8-5.2 6.8-11.2 13-17.6 18.8 16.8-35.3 17.7-77.4 17.7-77.9 0-0.2-0.2-0.4-0.4-0.5-0.2 0-0.5 0.1-0.6 0.3-23.4 36.6-19.3 76.4-18.9 80.1-4.3 3.9-8.7 7.7-13 11.4q-1.2 1-2.3 2c1.8-6.3 7.6-28.1 5.1-48-3-23.3-10.7-32.4-11.1-32.8q-0.2-0.2-0.4-0.2c-0.2 0.1-0.4 0.2-0.4 0.4-0.2 0.3-3.6 9.6-1.2 25.1 0.5 3 1.1 6.6 1.8 10.3 2.7 15.5 6.3 36.6 4.7 46.4q-1.5 1.3-2.9 2.5-6.7 5.9-13.2 11.9c9.5-38.7 0.4-80.9 0.3-81.3 0-0.2-0.2-0.4-0.5-0.4-0.2 0-0.4 0.1-0.5 0.3-16 43-0.7 82.1-0.6 82.5q0 0 0.1 0-11 10.3-21.4 21.1c2.1-6.4 8.6-27.7 6.9-47.4-2.1-23.5-9.5-32.9-9.8-33.3q-0.2-0.2-0.5-0.2c-0.2 0.1-0.3 0.2-0.4 0.3-0.1 0.4-3.9 9.5-2.1 25.1 0.4 3 0.8 6.6 1.4 10.4 2 15.7 4.9 37.1 2.8 46.8q0 0 0 0.1-2.7 2.8-5.4 5.7c-2.5 2.8-5.1 5.6-7.1 8.7 9.2-38.4 0.2-80 0.1-80.4 0-0.2-0.2-0.4-0.5-0.4-0.2 0-0.4 0.1-0.5 0.3-16 43-0.7 82.1-0.6 82.5q0.1 0.1 0.1 0.1 0 0 0 0 0 0.1 0 0.2c-1.4 2.6-2.4 5.4-2.8 8.4 0 0.2 0.2 0.5 0.5 0.5q0 0 0 0c0.3 0 0.5-0.2 0.5-0.4 0.4-2.8 1.3-5.4 2.7-7.9 3.7 1.6 25.3 10.4 38.5 11.9q1.8 0.2 3.6 0.2c12.8 0 22.2-7.7 22.3-7.7 0.2-0.2 0.3-0.4 0.2-0.6-0.1-0.2-0.2-0.3-0.4-0.4-0.2 0-11.7-1.2-29.1-4.5-14.8-2.9-29.9-1-34.3-0.3 2.1-3.4 4.8-6.5 7.6-9.5q2.5-2.8 5.2-5.5c1.8 1.9 9.1 8.6 22.5 9.8q1.4 0.1 2.8 0.1c7.4 0 14.7-2.4 21.8-4.8 6.8-2.2 13.8-4.5 20.9-4.8 0.2 0 0.4-0.1 0.5-0.4 0-0.2-0.1-0.5-0.4-0.6-0.2 0-22.2-7.5-39.7-2.2-14.3 4.3-24.4 2.5-27.4 1.8 7.2-7.5 14.6-14.8 22.1-21.9 3.1 1.3 25.4 10.5 38.8 12q1.8 0.2 3.6 0.2c12.8 0 22.2-7.7 22.3-7.7 0.2-0.2 0.2-0.4 0.2-0.6-0.1-0.2-0.3-0.3-0.5-0.4-0.1 0-11.7-1.2-29-4.5-14.3-2.8-28.9-1.1-33.8-0.4q6.3-5.9 12.9-11.6 1.3-1.1 2.6-2.3c1.6 1.7 9.2 8.5 23.1 9.2q0.7 0 1.5 0c7.8 0 15.5-2.9 22.9-5.7 6.7-2.5 13.6-5.1 20.6-5.6 0.3 0 0.5-0.2 0.5-0.4 0-0.3-0.1-0.5-0.4-0.6-0.2-0.1-22.4-6.7-39.7-0.7-14.2 4.9-24.3 3.5-27.4 2.9q1.5-1.3 3-2.5c4.3-3.8 8.7-7.5 13-11.4 0.5 0 2.1 0 4.3 0 8.2 0 25.8-0.3 36.4-3.2 14.1-3.8 21.2-16.4 21.3-16.5 0.1-0.2 0.1-0.5-0.1-0.6z"/>
				<g id="Layer">
					<g id="Layer">
						<g id="Layer">
							<path id="Layer" class="s0" d="m138.6 318.3c-9.2-5.3-20.7-11.1-33.9-15.9l-24.6 12.6 2.5-19.3c-9.2-2.1-19-3.6-29.2-4.1 0 0-3.9 17-1.6 39.1 4.6-1.9 11.7-4.4 17.9-3.9 0 0-9.7 11.1-14.5 22.2 3.2 12.2 8.7 25 17.9 36.8 1.7-6.5 5.2-17.2 10.9-22.9 0 0-2 19.5-0.5 34.1 7.8 7.3 17.4 13.8 29.2 19.2 0.4-7.3 1.4-20.1 4-23.2 0 0 2 16 7.4 27.8 11.1 3.9 23.8 6.9 38.5 8.8v-94.9c0 0-4.1-3.5-11.4-8.4-18.9 4.1-30.6 14-30.6 14 3.7-9.6 13.2-18.1 18-22z"/>
						</g>
					</g>
					<g id="Layer">
						<g id="Layer">
							<path id="Layer" class="s2" d="m159.3 399.6c-16.1-9.7-31.1-20.9-45-33.7-23.4-21.6-42.9-47.1-61.2-73.1-0.8 4.1-3.3 19.1-1.3 37.9 4.6-1.9 11.7-4.4 17.9-3.9 0 0-9.7 11.1-14.5 22.2 3.2 12.2 8.7 25 17.9 36.8 1.7-6.5 5.2-17.2 10.9-22.9 0 0-2 19.5-0.5 34.1 7.8 7.3 17.4 13.8 29.2 19.2 0.4-7.3 1.4-20.1 4-23.2 0 0 2 16 7.4 27.8 11.1 3.9 23.8 6.9 38.5 8.8v-28.1q-1.6-0.9-3.3-1.9z"/>
						</g>
					</g>
				</g>
				<path id="Layer" class="s1" d="m319 182c-2.2-17.1-5.8-31.9-10.5-44.8-13.7-6.2-32.4-8.4-32.4-8.4 3.7-3 18.5-4.3 27-4.8-6.3-13.7-14-24.8-22.4-33.9-17.1-1.7-39.8 0.8-39.8 0.8 6.6-6.6 19.2-10.8 26.6-12.8-13.7-10.6-28.6-17-42.9-20.7-12.9 5.7-25.7 17-25.7 17-0.6-7.2 2.2-15.4 4.4-20.8q-1.2-0.1-2.3-0.2-0.3 0-0.7 0-0.7-0.1-1.5-0.2-0.4 0-0.8 0-0.7-0.1-1.4-0.1-0.4 0-0.8 0-0.7-0.1-1.4-0.1-0.3 0-0.7 0-0.8-0.1-1.6-0.1-0.2 0-0.5 0-1 0-2-0.1-0.2 0-0.3 0-0.9 0-1.7 0-0.3 0-0.6 0-0.7 0-1.4 0-0.3 0-0.6 0-0.7 0.1-1.3 0.1-0.3 0-0.6 0-0.7 0-1.4 0-0.2 0-0.5 0-0.9 0.1-1.7 0.1 0 0-0.1 0-0.9 0.1-1.7 0.1-0.2 0-0.3 0-0.7 0.1-1.4 0.1-0.2 0-0.5 0.1-0.6 0-1.2 0-0.2 0.1-0.4 0.1-0.6 0-1.2 0.1-0.2 0-0.4 0-0.6 0.1-1.2 0.1-0.1 0-0.2 0.1-1.5 0.1-2.8 0.3-0.1 0-0.3 0-0.5 0.1-1 0.1-0.1 0-0.3 0.1-0.4 0-0.9 0.1-0.1 0-0.3 0-0.4 0.1-0.8 0.1-0.1 0.1-0.3 0.1-0.4 0-0.8 0.1-0.1 0-0.2 0-0.5 0.1-0.9 0.2-0.2 0-0.3 0-0.3 0.1-0.6 0.1-0.1 0.1-0.3 0.1-0.2 0-0.4 0.1-0.2 0-0.3 0-0.2 0-0.3 0.1-0.2 0-0.4 0-0.1 0.1-0.2 0.1c-1 0.2-1.6 0.3-1.6 0.3 0.6 11.9 2.3 23.3 4.9 34.1l22.4-3.1-14.6 28.7c5.7 15.3 12.5 28.7 18.8 39.3 4.5-5.6 14.3-16.6 25.5-21 0 0-11.5 13.7-16.2 35.7 5.8 8.5 9.9 13.2 9.9 13.2l77.7-0.4z"/>
				<g id="Layer">
					<g id="Layer">
						<path id="Layer" class="s0" d="m590.9 112.1c0.7 4.2 1.2 10.3 0.3 16.8 0 0-6.5-5.9-16.6-7.7-10.1 6.5-18.5 13.7-25.4 21.1 4 1 8.4 2.5 11.8 5.2 0 0-11.4 1.8-19.8 4.3-21.8 28.4-24.4 56.3-24.4 56.3l20.4 53.3c9-5.6 17.1-11.1 24.4-16.8 0.5-8.2-1.1-19.2-1.1-19.2 3.2 3.5 6.5 9.8 8.3 13.5 12.1-10.1 21.6-20.3 29.1-30.2-0.9-10.9-6.2-20.2-6.2-20.2 7.7 2.4 11.6 6.3 13.5 9.6 10-16.1 14.9-31.4 17-45-4.1-11.6-10.4-16.2-10.4-16.2 4.6-3 8.7-4.4 11.6-5.1-0.8-18.2-6.1-29.8-6.1-29.8-9.7 2.9-18.5 6.3-26.4 10.1z"/>
					</g>
					<g id="Layer">
						<path id="Layer" class="s2" d="m611.8 136.8c4.6-2.9 8.7-4.3 11.6-5-0.8-18.2-6.1-29.8-6.1-29.8q-0.5 0.2-1.1 0.3c-7.7 28.9-23.8 55.8-42.2 78.9-14.6 18.2-31.4 34.5-48.1 50.8l11.3 29.3c9-5.5 17.1-11 24.4-16.7 0.5-8.2-1.1-19.2-1.1-19.2 3.2 3.5 6.5 9.8 8.3 13.5 12.1-10.1 21.6-20.3 29.1-30.3-0.9-10.8-6.2-20.1-6.2-20.1 7.7 2.4 11.6 6.3 13.5 9.6 10-16.1 14.9-31.5 17-45-4.1-11.6-10.4-16.3-10.4-16.3z"/>
					</g>
				</g>
			</g>
			<g id="Layer">
				<path id="Layer" class="s3" d="m549.9 430.9h-399.9v-259.3c0-5.7 4.7-10.4 10.4-10.4h379.1c5.7 0 10.4 4.7 10.4 10.4 0 0 0 259.3 0 259.3z"/>
				<path id="Layer" class="s4" d="m219.4 161.2h-59c-5.7 0-10.4 4.7-10.4 10.4v259.3h339.1z"/>
				<path id="Layer" class="s5" d="m529.9 415.4h-360v-227.3c0-5.1 4.2-9.3 9.4-9.3h341.3c5.2 0 9.3 4.2 9.3 9.3 0 0 0 227.3 0 227.3z"/>
				<path id="Layer" class="s1" d="m265.5 178.8h-86.2c-5.2 0-9.4 4.2-9.4 9.3v227.3h332.2z"/>
				<path id="Layer" class="s6" d="m538 466h-376.1c-19.1 0-34.6-15.5-34.6-34.6 0-1.4 1.2-2.6 2.6-2.6h440.1c1.4 0 2.6 1.2 2.6 2.6 0 19.1-15.5 34.6-34.6 34.6z"/>
				<path id="Layer" class="s7" d="m570 428.8h-202l37.2 37.2h132.8c19.1 0 34.6-15.5 34.6-34.6 0-1.4-1.2-2.6-2.6-2.6z"/>
			</g>
			<g id="Layer">
				<path id="Layer" class="s8" d="m247.7 275.1l-8-8.2v-9.8c0-2.7-2.2-4.9-5-4.9h-48c-2.8 0-5 2.2-5 4.9v16.3c0 2.7 2.2 4.9 5 4.9h41.9 6.1 11.7c1.6 0 2.5-2 1.3-3.2z"/>
				<g id="Layer">
					<path id="Layer" class="s5" d="m200.1 265.3c0 2.6-2 4.7-4.6 4.7-2.6 0-4.7-2.1-4.7-4.7 0-2.5 2.1-4.6 4.7-4.6 2.6 0 4.6 2.1 4.6 4.6z"/>
					<path id="Layer" class="s5" d="m215.4 265.2c0 2.5-2.1 4.6-4.7 4.6-2.6 0-4.7-2.1-4.7-4.6 0-2.6 2.1-4.7 4.7-4.7 2.6 0 4.7 2.1 4.7 4.7z"/>
					<path id="Layer" class="s5" d="m230.6 265.2c0 2.5-2.1 4.6-4.7 4.6-2.6 0-4.7-2.1-4.7-4.6 0-2.6 2.1-4.7 4.7-4.7 2.6 0 4.7 2.1 4.7 4.7z"/>
				</g>
			</g>
			<g id="Layer">
				<g id="Layer">
					<path id="Layer" class="s8" d="m490.3 125.4q-0.5 0-0.9-0.3l-40-28.6q-0.1 0.4-0.1 0.9v41.7c0 2.3 1.9 4.2 4.2 4.2h73.6c2.3 0 4.2-1.9 4.2-4.2v-41.7q0-1-0.4-1.8l-39.7 29.5q-0.4 0.3-0.9 0.3z"/>
					<path id="Layer" class="s8" d="m528.6 93.5q-0.7-0.3-1.5-0.3h-73.6c-0.9 0-1.6 0.3-2.3 0.7l39.1 28z"/>
				</g>
				<g id="Layer">
					<path id="Layer" class="s0" d="m544.4 97.8c-2.1 8.8-10.9 14.2-19.6 12.1-8.8-2.1-14.2-10.8-12.1-19.6 2.1-8.7 10.8-14.1 19.6-12.1 8.8 2.1 14.2 10.9 12.1 19.6z"/>
					<g id="Layer">
						<path id="Layer" class="s3" d="m531.6 103.8c0 1.7-1.4 3.1-3.1 3.1-1.7 0-3.1-1.4-3.1-3.1 0-1.7 1.4-3.1 3.1-3.1 1.7 0 3.1 1.4 3.1 3.1z"/>
						<path id="Layer" class="s3" d="m527.1 97.8l-1.4-13.3c-0.2-1.6 1-3 2.5-3.1 1.6-0.2 3 0.9 3.1 2.5q0.1 0.3 0 0.6l-1.4 13.3c0 0.8-0.7 1.4-1.5 1.3-0.7-0.1-1.2-0.6-1.3-1.3z"/>
					</g>
				</g>
			</g>
			<g id="Layer">
				<path id="Layer" class="s8" d="m279.4 185.5l-17.4-18.1v-51.7c0-4.5-3.7-8.2-8.2-8.2h-63.9c-4.5 0-8.2 3.7-8.2 8.2v67.2c0 4.5 3.7 8.2 8.2 8.2h55.4l-0.1 0.1h31.8c3 0 4.5-3.5 2.4-5.7z"/>
				<path id="Layer" class="s5" d="m217.8 144.5l-2.7-5 6.4-3.4c1.5-0.8 2.1-2.8 1.3-4.3l-5.6-10.6c-0.8-1.6-2.8-2.2-4.3-1.3l-3.5 1.8c-7.9 4.2-11 14-6.8 22l3.7 6.8 3.7 7.1 6.2 11.4c4.2 7.9 14 11 21.9 6.8l3.5-1.9c1.6-0.8 2.2-2.7 1.3-4.3l-5.6-10.6c-0.8-1.5-2.7-2.1-4.3-1.3l-6.4 3.4-5.1-9.6z"/>
			</g>
			<g id="Layer">
				<path id="Layer" class="s9" d="m515 314c7.4-11.5 15.8-22.4 25.1-32.5 0.6-0.7 1.3-1.5 1.7-2.4 0.3-0.9 0.2-2.1-0.5-2.8-1.2-1-3.1-0.2-4.4 0.7-3 2.1-5.8 4-8.6 6.5q4.9-7.3 9.7-14.7c0.5-0.7 1-1.5 1.2-2.3 0.2-0.9 0.1-1.9-0.6-2.5-0.6-0.6-1.6-0.7-2.4-0.5-0.9 0.2-1.6 0.7-2.3 1.2-4.4 3.4-7.9 7.8-11.4 12.1 3.9-6.2 7.2-12.8 10.1-19.5 0.6-1.4 1.1-3.1 0.2-4.3-0.7-0.9-2-1.1-3-0.8-1.1 0.3-2 1.1-2.8 1.8-5.1 5-7.8 11.9-10.3 18.6 1.5-5.8 2.9-11.2 3.2-17.2 0.1-1.5 0-3.2-1.3-3.8-0.9-0.5-2.1-0.1-2.8 0.6-0.7 0.8-1.1 1.7-1.4 2.7q-3.4 8.6-6.3 17.4c-0.4 1.1-3.5 12.7-6.4 8.7-0.4-0.6-0.6-1.3-0.7-2q-0.7-3.4-1.4-6.9c-0.2-1.2-0.4-2.4-1.2-3.3-1.5-2-3.9-1.2-4.3 1.1-1.9 10.5 3.7 21.1 3.2 31.8 6.8 2 13.4 6.6 17.7 12.3z"/>
				<path id="Layer" class="s10" d="m229.9 415.4c0 0 19.8-82.8 28.8-104.5 8.9-21.8 15-33.1 45.9-42.2 30.9-9 88.5-6.8 106.7 8.9 18.3 15.7 45.8 83.2 45.8 83.2l39.7-61.1c0 0 14.4 5.7 20.2 13.7 0 0-40.1 97.3-59.9 98.6-19.8 1.3-48-61.1-48-61.1l10.6 64.5c0 0-189.8 0-189.8 0z"/>
				<path id="Layer" class="s11" d="m265.5 307.2c1.9-7.2 4.1-14.5 7.2-21.3-6.1 6.5-9.7 14.5-14 25-9 21.7-28.8 104.5-28.8 104.5h8c0-0.2 25.2-99 27.6-108.2z"/>
				<path id="Layer" class="s11" d="m515.5 315.4c-6.8 8.6-13.6 17.3-20 26.2-7 9.9-12.4 20.8-20.7 29.8-9.2 9.9-23.1 14.5-34.2 4.4-6.4-5.8-9.9-14.4-14.1-21.8-4.8-8.5-9.6-16.9-14-25.6-2.4-4.7-4.6-9.6-6.7-14.5q0 3.4 0.1 6.8c0.5 11.5 2.7 23.1 5.2 34.4 6.8 14 29.3 58 46 56.9 19-1.2 56.4-90.4 59.6-98q-0.6 0.7-1.2 1.4z"/>
				<path id="Layer" class="s12" d="m392 265.7q-8.1-3.8-16.5-6.9c-4.3-1.5-8.4-3.9-13-4.4-11.2-1.2-22.7 0-33.4 3.1-11.9 3.4-22.9 8.1-34.4 12.9-3.1 1.4-6.5 2.9-8 5.9-2.2 4.2 0.1 9.4 2.9 13.1 2.9 3.7 6.4 6.9 9 10.8 2.6 3.9 4.3 8.7 3.1 13.2-1.5 5.5-7.1 9.3-8.4 14.9-1 4 0.6 8.2 2 12.1q4.5 11.8 9.1 23.7c5.2 13.9 11.1 28.6 23.2 37.2 5.3 3.7 12 6.1 18.2 4.1 5.2-1.7 9-6.2 12.3-10.8 9.1-12.7 16.2-26.7 22.7-41 2.7-6.1 5.6-12 8.5-17.8 2.6-5.2 1.7-12.1-2.5-16.1-2.1-1.8-4.8-3.2-5.9-5.8-1.5-3.4 0.6-7.3 2.5-10.5 5.1-8.6 9.5-17.7 13-27 0.8-2.1 1.5-4.5 0.7-6.5-0.9-2.1-3.1-3.3-5.1-4.2z"/>
				<path id="Layer" class="s5" d="m324.7 255.8c0 0-17 79.4-9.8 159.6 0 0 57.9 0 58.2 0 0.3 0-7-128.2-2.3-154.8z"/>
				<path id="Layer" class="s13" d="m327.5 415.4h0.6q-0.1-1.6-0.1-3.2-0.3 1.6-0.5 3.2z"/>
				<path id="Layer" class="s13" d="m370.8 260.6l-7.7-0.8c-4.1 25.9-3.7 52.5-2.8 78.7 0.6 17.4 1.6 34.9 2 52.4 0.2 8.1 0.2 16.1 1.7 24.1q0 0.2 0 0.4h9.1c0.3 0-7-128.2-2.3-154.8z"/>
				<g id="Layer">
					<path id="Layer" class="s14" d="m368.5 218.5q0.4-0.2 0.8-0.5c0.9 2.9 0.7 6 0.5 9.1-0.4 5.4-0.8 10.8-1 16.2-0.2 5 0.8 9.5 1.8 14.4 0.2 1 0.4 2 0.2 2.9-0.1 1.1-0.8 2.1-1.4 2.9-5.1 6.4-14.2 7.7-22.4 7.4-6.7-0.2-14.1-1.2-19.8-5.1-3.4-2.3-2.3-3.4-2.2-7 0-2.7 0-4.9 0.5-7.7 0.4-2 3.5-18.5 0.9-18.5 7.5-0.1 14.9-1.4 22-3.8 3.5-1.1 7-2.5 10.4-3.9 3.4-1.5 6.6-4.1 9.7-6.4z"/>
					<path id="Layer" class="s15" d="m370.6 257.7c-1-4.9-2-9.4-1.8-14.4 0.2-5.4 0.6-10.8 1-16.2 0.2-3.1 0.4-6.2-0.5-9.1q-0.4 0.3-0.8 0.5c-3.1 2.3-6.3 4.9-9.7 6.4-3.4 1.4-6.9 2.8-10.4 3.9-7.1 2.4-14.5 3.7-22 3.8 1.7 0 1 6.8 0.2 12.2 8.9 4.2 20.3 0.1 28 7.6 4.3 4.3 6.3 10.3 7.6 16.3 2.8-1.1 5.2-2.8 7.2-5.1 0.7-0.9 1.3-1.9 1.4-3 0.2-0.9 0-1.9-0.2-2.9z"/>
					<path id="Layer" class="s16" d="m386.6 142.7c2.8 4.3 4.5 9.8 5.9 14.7 1.4 4.6 2.1 9.4 2.1 14.1 0 5.1 0.3 10-0.5 15-1.2 7.4-4 14.4-8.3 20.5-4.4 6.2-10.3 10.7-15.3 16.4-1.3 1.6-3.4 3.9-5.8 2.6-1.7-1.1-1.5-3.6-1.2-5.6 1.7-10.1 1.5-20.5-0.7-30.5-2.1-9.7-5.1-18.9-6.3-28.8-0.7-6.1-5.2-3.5-9.2-2.2-5.2 1.8-10.9 3-16.2 1.2-1.8-0.6-3.4-1.5-5.2-2-1.9-0.4-3.9-0.3-5.9-0.2-10.8 0.6-20.2 3-30.7-1.6-6.5-2.9-10.6-9.3-9.1-16.6 1.6-7.5 9.2-12.9 16.8-12 2.2 0.3 4.4 1 6.7 0.8 2.9-0.3 3.7-2.5 5.4-4.4 1.9-2.1 4.4-3.8 6.8-5.2 5-2.9 10.7-4.6 16.5-5.1 13.2-1.1 29.7 2.6 37.4 14.3 1 1.6 2 3.3 3.5 4.4 1.3 1 2.9 1.5 4.4 2.2 3.7 1.6 6.7 4.6 8.9 8z"/>
					<g id="Layer">
						<path id="Layer" class="s17" d="m384.2 209.2c3.3-7.7 5.5-15.7 1.5-23.3-2.5-5.1-6.3-7.6-6.5-13.6-0.3-6.8 0.6-13.6-0.9-20.2-1.6-6.8-6.5-15.4-11.9-19.9-5.2-4.5-12.9-7.3-19.4-9-7.2-1.9-14.7-1.8-22.1-1.3-5.2 0.3-10.4 1.4-15.7 2q0 0.1-0.1 0.2c-1.7 1.9-2.5 4.1-5.4 4.4-2.3 0.2-4.5-0.5-6.7-0.8q-1.2-0.1-2.4-0.1c-1.4 3.3-1.2 7.4 2.5 8.6 2.2 0.8 5 0.6 7.4 0.6 7.8-0.1 16.2-5.1 24.1-5.1 11.6 0 24.6 0.6 33.9 8.5 9.7 8.3 9.1 29.4 8.5 40.9-0.4 8.1-2.6 15.6-6.4 22.3 0.2 5.7-0.1 11.4-1.1 17-0.3 2-0.5 4.5 1.2 5.6 2.4 1.3 4.5-1 5.8-2.6 4.4-5 9.5-9.1 13.7-14.2z"/>
					</g>
					<path id="Layer" class="s9" d="m327.2 149.3c-8.1 1.2-14.2 7.1-22.2 8.7-0.1 0-0.3 0.1-0.4 0.2 0 0.1 0 0.2 0 0.3 0.9 3.4 1.9 6.6 2.2 10.1 0.6 6.7 0.6 13.7-0.4 20.4-1.1 6.6-2.7 13.3-2.1 20.1 0.8 8.1 4.9 15.9 11.3 21 8.8 7.1 21.1 8.1 31.9 5.8 18-4 28.7-22.4 27.6-40.2 0-0.4 0-1 0.3-1.3 0.2-0.2 0.4-0.3 0.7-0.3 4-1.4 7.5-3.2 8.8-7.5 0.5-1.8 0.5-3.8-0.4-5.4-2.8-5.1-9.9-1.4-11.9 2.3-0.7 1.3-0.6 2.3-2.2 2.7-2.7 0.8-3.9 0.6-4.9-2.2-1.2-3.3-0.1-6.2-0.1-9.5 0-3.5 0.5-6.3-1.4-9.3-1-1.6-2.3-2.9-3-4.5-0.8-1.6-0.9-3.5-0.9-5.3 0.1-3.3 0.6-6.5 1.7-9.5-2.3 1.9-4.8 3.8-7.6 4.8-4.3 1.4-9 0.8-13.5-0.1-4.4-0.8-9-1.9-13.5-1.3z"/>
					<path id="Layer" class="s14" d="m384.5 181.2c-2.8-5.1-9.9-1.4-11.9 2.3-0.7 1.3-0.6 2.3-2.2 2.7-2.7 0.8-3.9 0.6-4.9-2.2-1.2-3.3-0.1-6.2-0.1-9.5 0-3.5 0.5-6.3-1.4-9.3-1-1.6-2.3-2.9-3-4.5-0.8-1.6-0.9-3.5-0.9-5.3 0.1-3.3 0.6-6.5 1.7-9.5-2.3 1.9-4.8 3.8-7.7 4.8-4.2 1.4-8.9 0.8-13.4-0.1-4.4-0.8-9-1.9-13.5-1.3-8.1 1.2-14.2 7.1-22.2 8.7-0.1 0-0.3 0.1-0.4 0.2 0 0.1 0 0.2 0 0.3q0.2 0.9 0.5 1.7c3.5-0.3 7.1-0.9 10.5-1.8 3.5-1 6.7-2.5 10.1-3.6 2.9-0.9 5.8-1.6 8.8-1.5 3.2 0.1 6.2 1.1 9.2 1.9 3.3 0.8 7.9 0 9.4 3.9 1.4 3.6 0.8 7.8 1 11.6 0.4 6.1 2.5 12.1 3.5 18.1 1 5.7 1.3 11.4 0.6 17.1-1.3 9.9-5.1 20.1-12.9 26.6-2.2 1.8-4.5 3.2-6.9 4.3 3-0.1 6.1-0.3 9.1-0.9 18-4 28.7-22.4 27.6-40.2 0-0.4 0-1 0.3-1.3 0.2-0.2 0.4-0.3 0.7-0.3 4-1.4 7.5-3.2 8.8-7.5 0.5-1.8 0.5-3.8-0.4-5.4z"/>
					<g id="Layer">
						<path id="Layer" class="s16" d="m320.2 161.9c-1-1.7-4.1-1.6-5.6-1-3.6 1.6-8.8 5.8-10 9.7-0.2 0.6-0.1 1.4 0.4 1.9 0.5 0.4 1.2 0.5 1.9 0.2 0.6-0.2 1.2-0.7 1.7-1.1 2.4-1.9 5-3.5 7.8-4.7 1.1-0.4 2.3-0.9 3.2-1.7 0.8-0.9 1.3-2.3 0.6-3.3z"/>
					</g>
					<g id="Layer">
						<path id="Layer" class="s16" d="m342.7 161.2c1-1.7 4.1-1.6 5.7-1 3.5 1.6 8.8 5.8 9.9 9.7 0.2 0.7 0.2 1.4-0.3 1.9-0.5 0.4-1.3 0.5-2 0.2-0.6-0.2-1.1-0.6-1.7-1.1-2.4-1.9-5-3.5-7.8-4.7-1.1-0.4-2.3-0.9-3.1-1.7-0.9-0.9-1.3-2.3-0.7-3.3z"/>
					</g>
					<g id="Layer">
						<path id="Layer" class="s18" d="m321.2 178.6c0 1.7-1.4 3.1-3.2 3.1-1.7 0-3.1-1.4-3.1-3.1 0-1.8 1.4-3.2 3.1-3.2 1.8 0 3.2 1.4 3.2 3.2z"/>
					</g>
					<g id="Layer">
						<path id="Layer" class="s18" d="m345.7 178.6c0 1.7-1.4 3.1-3.1 3.1-1.8 0-3.2-1.4-3.2-3.1 0-1.8 1.4-3.2 3.2-3.2 1.7 0 3.1 1.4 3.1 3.2z"/>
					</g>
				</g>
				<path id="Layer" class="s15" d="m330.4 172.9c0.3 3.6 0.6 7.2 0.8 10.8 0 1.8 0.2 3.6-0.1 5.5-0.2 1.9-0.7 3.8-1.7 5.5q-0.7 1.2-1.8 2.3c-0.7 0.7-1.5 1.2-2.2 1.7-0.7 0.5-1.3 1.1-1.5 1.6-0.2 0.5-0.2 1.2 0.1 1.8 0.3 0.6 0.8 1.2 1.4 1.5 0.6 0.3 1.4 0.5 2.1 0.5 1.6-0.1 3.2-1 4.5-2 0.3-0.2 0.6-0.1 0.8 0.1 0.1 0.2 0.1 0.5-0.1 0.7-1.3 1.3-2.9 2.5-5 2.8-2.1 0.4-4.4-0.7-5.4-2.8-0.5-1-0.6-2.2-0.2-3.4 0.6-1.1 1.4-1.7 2.2-2.3 0.8-0.5 1.5-1 2-1.5q0.9-0.9 1.5-2c0.9-1.4 1.4-3 1.6-4.7 0.3-1.7 0.2-3.5 0.2-5.3 0-3.6-0.2-7.2-0.2-10.8 0-0.3 0.2-0.5 0.5-0.5 0.3 0 0.5 0.2 0.5 0.5z"/>
				<g id="Layer">
					<path id="Layer" class="s5" d="m329 212.2c-2.1 0.5-4.2 1.1-6.1 1.8-1.4 0.6-1.7 0.2-1.8 1.7 0 0.8 0.8 2 1.2 2.7 1 1.6 2.4 3 4.1 3.7 3.1 1.5 6.9 1.1 9.7-0.8 1.9-1.3 3.3-3.4 3.8-5.7 0.4-1.6 0.9-6.3-1.8-5.6-2.9 0.8-6.1 1.4-9.1 2.2z"/>
				</g>
				<g id="Layer">
					<g id="Layer">
						<path id="Layer" class="s19" d="m387.5 193.7c-4.7 4.8-12.5 4.8-17.2 0-4.8-4.7-4.8-12.4 0-17.2 4.7-4.8 12.5-4.8 17.2 0 4.8 4.8 4.8 12.5 0 17.2z"/>
						<path id="Layer" class="s10" d="m378.9 191.4c-3.5 0-6.3-2.8-6.3-6.3 0-3.5 2.8-6.3 6.3-6.3 3.5 0 6.3 2.8 6.3 6.3 0 3.5-2.8 6.3-6.3 6.3z"/>
					</g>
					<path id="Layer" class="s19" d="m378.2 178.4c-1.3-0.1-2.4-1.2-2.4-2.6-0.1-7.1-0.1-14.4-1.4-21.3-1.4-7.7-4.1-14-8.1-18.7-3.5-4.2-8-7.4-13.1-9.6-5.8-2.4-12.1-3.3-18.4-3.4-9.6 0-19.1 1.9-28.2 4.9-1 0.4-1.9 0.7-2.9 1.1-0.2 0-0.5 0.1-0.7 0-0.2-0.1-0.4-0.4-0.3-0.7 0-1.1 1.3-2.4 2-3.2 3-3.2 7.5-4.2 11.6-5.2 5.6-1.3 11.4-1.9 17.1-2 6.6-0.1 13.3 0.7 19.6 2.9 6.7 2.4 12.7 6.5 17.3 11.9 4.6 5.4 7.7 12.5 9.2 21 1.4 7.5 1.4 15 1.4 22.3 0.1 1.4-1.1 2.6-2.5 2.6q-0.1 0-0.2 0z"/>
					<g id="Layer">
						<path id="Layer" class="s19" d="m347.9 226c-0.6 0-1.2-0.4-1.5-1.1-0.2-0.8 0.2-1.7 1-1.9 7-2.3 15.6-5.1 20.7-11.3 4.5-5.3 6-12.6 7.4-19 0.2-0.9 1-1.4 1.9-1.2 0.8 0.2 1.3 1 1.1 1.8-1.4 6.8-3.1 14.5-8 20.4-5.7 6.9-14.8 9.8-22.1 12.2q-0.2 0.1-0.5 0.1z"/>
						<path id="Layer" class="s10" d="m346.5 229.6l-2.6 0.7c-2.5 0.7-5-0.8-5.7-3.2-0.7-2.5 0.7-5 3.2-5.7l2.6-0.7c2.5-0.7 5.1 0.7 5.7 3.2 0.7 2.4-0.7 5-3.2 5.7z"/>
					</g>
				</g>
				<path id="Layer" class="s11" d="m270.8 415.4l9.6-61.3-1.9 61.3z"/>
			</g>
		</g>
	</g>
</svg>